<svg width="192" height="192" viewBox="0 0 192 192" fill="none" xmlns="http://www.w3.org/2000/svg">
<rect width="192" height="192" rx="96" fill="black"/>
<path d="M91.9409 48.0076C87.5097 46.5139 82.6939 46.6857 78.3781 48.4913C74.0622 50.297 70.5362 53.6153 68.4477 57.8367L49.0479 97.0355C46.9334 101.308 46.4363 106.214 47.65 110.831C48.8637 115.448 51.7047 119.458 55.639 122.108L84.7387 141.707C87.9256 143.854 91.6703 145 95.5007 145C99.3311 145 103.076 143.854 106.263 141.707L135.362 122.108C138.902 119.723 141.568 116.229 142.949 112.163C144.331 108.098 144.35 103.686 143.006 99.6079L133.306 70.2088C132.354 67.322 130.749 64.6989 128.619 62.5472C126.49 60.3955 123.893 58.7744 121.036 57.8122L91.9409 48.0076Z" fill="white"/>
<path d="M95.4619 145L105.21 96.0016L143.147 111.603" fill="white"/>
<path d="M105.21 96.0016L78.3901 48.4829Z" fill="white"/>
<path d="M95.4619 145L105.21 96.0016M105.21 96.0016L143.147 111.603M105.21 96.0016L78.3901 48.4829M91.9409 48.0076C87.5097 46.5139 82.6939 46.6857 78.3781 48.4913C74.0622 50.297 70.5362 53.6153 68.4477 57.8367L49.0479 97.0355C46.9334 101.308 46.4363 106.214 47.65 110.831C48.8637 115.448 51.7047 119.458 55.639 122.108L84.7387 141.707C87.9256 143.854 91.6703 145 95.5007 145C99.3311 145 103.076 143.854 106.263 141.707L135.362 122.108C138.902 119.723 141.568 116.229 142.949 112.163C144.331 108.098 144.35 103.686 143.006 99.6079L133.306 70.2088C132.354 67.322 130.749 64.6989 128.619 62.5472C126.49 60.3955 123.893 58.7744 121.036 57.8122L91.9409 48.0076Z" stroke="black" stroke-width="2" stroke-linecap="round" stroke-linejoin="round"/>
</svg>
